%TF.GenerationSoftware,KiCad,Pcbnew,6.0.2+dfsg-1*%
%TF.CreationDate,2022-08-09T16:06:41+08:00*%
%TF.ProjectId,LightSwitch,4c696768-7453-4776-9974-63682e6b6963,rev?*%
%TF.SameCoordinates,Original*%
%TF.FileFunction,Profile,NP*%
%FSLAX46Y46*%
G04 Gerber Fmt 4.6, Leading zero omitted, Abs format (unit mm)*
G04 Created by KiCad (PCBNEW 6.0.2+dfsg-1) date 2022-08-09 16:06:41*
%MOMM*%
%LPD*%
G01*
G04 APERTURE LIST*
%TA.AperFunction,Profile*%
%ADD10C,0.050000*%
%TD*%
%TA.AperFunction,Profile*%
%ADD11C,0.100000*%
%TD*%
G04 APERTURE END LIST*
D10*
X139200000Y-30000000D02*
G75*
G03*
X102800000Y-30000000I-18200000J-10934625D01*
G01*
X104500000Y-39000000D02*
G75*
G03*
X104500000Y-30000000I-4237J4500000D01*
G01*
X137500000Y-39000000D02*
X141900000Y-39000000D01*
X104500000Y-139000000D02*
G75*
G03*
X104500000Y-130000000I0J4500000D01*
G01*
X137500000Y-30000000D02*
G75*
G03*
X137500000Y-39000000I-8008J-4500000D01*
G01*
X119000000Y-141100000D02*
X119000000Y-146400000D01*
X137500000Y-30000000D02*
X139200000Y-30000000D01*
X100000000Y-128000000D02*
X100000000Y-41000000D01*
X123000000Y-141100000D02*
X122600000Y-141100000D01*
X123300000Y-140700000D02*
X123300000Y-146700000D01*
X118700000Y-146700000D02*
X118700000Y-140700000D01*
X119000000Y-141100000D02*
X119400000Y-141100000D01*
X137500000Y-130000000D02*
G75*
G03*
X137500000Y-139000000I0J-4500000D01*
G01*
X104500000Y-39000000D02*
X100100000Y-39000000D01*
X100100000Y-39000000D02*
G75*
G03*
X100000000Y-41000000I14438121J-1724406D01*
G01*
X141900000Y-130000000D02*
G75*
G03*
X142000000Y-128000000I-19950324J2000016D01*
G01*
X142000000Y-128000000D02*
X142000000Y-41000000D01*
X137500000Y-130000000D02*
X141900000Y-130000000D01*
X122600000Y-140700000D02*
X123300000Y-140700000D01*
X123000000Y-146400000D02*
X123000000Y-141100000D01*
X103100000Y-139000000D02*
X104500000Y-139000000D01*
X119400000Y-141100000D02*
X119400000Y-140700000D01*
X118700000Y-140700000D02*
X119400000Y-140700000D01*
X142000000Y-41000000D02*
G75*
G03*
X141900000Y-39000000I-18008772J102061D01*
G01*
X122600000Y-141100000D02*
X122600000Y-140700000D01*
X119000000Y-146400000D02*
X123000000Y-146400000D01*
X100000000Y-128000000D02*
G75*
G03*
X100100001Y-130000000I22039402J99481D01*
G01*
X100100000Y-130000000D02*
X104500000Y-130000000D01*
X137500000Y-139000000D02*
X138900000Y-139000000D01*
X123300000Y-146700000D02*
X118700000Y-146700000D01*
X103100000Y-139000000D02*
G75*
G03*
X138900000Y-139000000I17900000J11003375D01*
G01*
X104500000Y-30000000D02*
X102800000Y-30000000D01*
D11*
%TO.C,SW1*%
X121300000Y-32250000D02*
G75*
G03*
X121300000Y-32250000I-300000J0D01*
G01*
%TO.C,SW3*%
X121300000Y-82250000D02*
G75*
G03*
X121300000Y-82250000I-300000J0D01*
G01*
%TO.C,SW5*%
X121300000Y-132250000D02*
G75*
G03*
X121300000Y-132250000I-300000J0D01*
G01*
%TO.C,SW4*%
X121300000Y-107250000D02*
G75*
G03*
X121300000Y-107250000I-300000J0D01*
G01*
%TO.C,SW2*%
X121300000Y-57250000D02*
G75*
G03*
X121300000Y-57250000I-300000J0D01*
G01*
%TD*%
M02*
