%TF.GenerationSoftware,KiCad,Pcbnew,6.0.2+dfsg-1*%
%TF.CreationDate,2022-08-09T16:06:41+08:00*%
%TF.ProjectId,LightSwitch,4c696768-7453-4776-9974-63682e6b6963,rev?*%
%TF.SameCoordinates,Original*%
%TF.FileFunction,Soldermask,Bot*%
%TF.FilePolarity,Negative*%
%FSLAX46Y46*%
G04 Gerber Fmt 4.6, Leading zero omitted, Abs format (unit mm)*
G04 Created by KiCad (PCBNEW 6.0.2+dfsg-1) date 2022-08-09 16:06:41*
%MOMM*%
%LPD*%
G01*
G04 APERTURE LIST*
%ADD10C,3.200000*%
%ADD11C,0.990600*%
%ADD12R,2.600000X2.600000*%
%ADD13C,2.600000*%
%ADD14R,1.050000X1.500000*%
%ADD15O,1.050000X1.500000*%
%ADD16R,1.700000X1.700000*%
%ADD17O,1.700000X1.700000*%
%ADD18C,2.000000*%
%ADD19C,1.400000*%
G04 APERTURE END LIST*
D10*
%TO.C,REF\u002A\u002A*%
X104000000Y-84000000D03*
%TD*%
D11*
%TO.C,J4*%
X125730000Y-116840000D03*
X124714000Y-124460000D03*
X126746000Y-124460000D03*
%TD*%
D12*
%TO.C,J1*%
X118400000Y-76047600D03*
D13*
X123480000Y-76047600D03*
%TD*%
D14*
%TO.C,U1*%
X114604800Y-90932000D03*
D15*
X113334800Y-90932000D03*
X112064800Y-90932000D03*
%TD*%
D16*
%TO.C,J2*%
X110337600Y-117703600D03*
D17*
X110337600Y-115163600D03*
X110337600Y-112623600D03*
X110337600Y-110083600D03*
X110337600Y-107543600D03*
X110337600Y-105003600D03*
%TD*%
D10*
%TO.C,REF\u002A\u002A*%
X138000000Y-84000000D03*
%TD*%
%TO.C,REF\u002A\u002A*%
X104000000Y-44000000D03*
%TD*%
%TO.C,REF\u002A\u002A*%
X104000000Y-124000000D03*
%TD*%
%TO.C,REF\u002A\u002A*%
X138000000Y-44000000D03*
%TD*%
%TO.C,REF\u002A\u002A*%
X138000000Y-124000000D03*
%TD*%
D18*
%TO.C,SW1*%
X117750000Y-32250000D03*
X124250000Y-32250000D03*
X117750000Y-36750000D03*
X124250000Y-36750000D03*
D19*
X117750000Y-34500000D03*
X124250000Y-34500000D03*
%TD*%
D18*
%TO.C,SW3*%
X117750000Y-82250000D03*
X124250000Y-82250000D03*
X124250000Y-86750000D03*
X117750000Y-86750000D03*
D19*
X117750000Y-84500000D03*
X124250000Y-84500000D03*
%TD*%
D18*
%TO.C,SW5*%
X124250000Y-132250000D03*
X117750000Y-132250000D03*
X117750000Y-136750000D03*
X124250000Y-136750000D03*
D19*
X117750000Y-134500000D03*
X124250000Y-134500000D03*
%TD*%
D18*
%TO.C,SW4*%
X117750000Y-107250000D03*
X124250000Y-107250000D03*
X124250000Y-111750000D03*
X117750000Y-111750000D03*
D19*
X117750000Y-109500000D03*
X124250000Y-109500000D03*
%TD*%
D18*
%TO.C,SW2*%
X124250000Y-57250000D03*
X117750000Y-57250000D03*
X117750000Y-61750000D03*
X124250000Y-61750000D03*
D19*
X117750000Y-59500000D03*
X124250000Y-59500000D03*
%TD*%
M02*
