%TF.GenerationSoftware,KiCad,Pcbnew,6.0.2+dfsg-1*%
%TF.CreationDate,2022-08-09T16:06:41+08:00*%
%TF.ProjectId,LightSwitch,4c696768-7453-4776-9974-63682e6b6963,rev?*%
%TF.SameCoordinates,Original*%
%TF.FileFunction,Soldermask,Top*%
%TF.FilePolarity,Negative*%
%FSLAX46Y46*%
G04 Gerber Fmt 4.6, Leading zero omitted, Abs format (unit mm)*
G04 Created by KiCad (PCBNEW 6.0.2+dfsg-1) date 2022-08-09 16:06:41*
%MOMM*%
%LPD*%
G01*
G04 APERTURE LIST*
G04 Aperture macros list*
%AMRoundRect*
0 Rectangle with rounded corners*
0 $1 Rounding radius*
0 $2 $3 $4 $5 $6 $7 $8 $9 X,Y pos of 4 corners*
0 Add a 4 corners polygon primitive as box body*
4,1,4,$2,$3,$4,$5,$6,$7,$8,$9,$2,$3,0*
0 Add four circle primitives for the rounded corners*
1,1,$1+$1,$2,$3*
1,1,$1+$1,$4,$5*
1,1,$1+$1,$6,$7*
1,1,$1+$1,$8,$9*
0 Add four rect primitives between the rounded corners*
20,1,$1+$1,$2,$3,$4,$5,0*
20,1,$1+$1,$4,$5,$6,$7,0*
20,1,$1+$1,$6,$7,$8,$9,0*
20,1,$1+$1,$8,$9,$2,$3,0*%
%AMFreePoly0*
4,1,6,0.500000,-0.850000,-0.500000,-0.850000,-0.500000,0.550000,-0.200000,0.850000,0.500000,0.850000,0.500000,-0.850000,0.500000,-0.850000,$1*%
G04 Aperture macros list end*
%ADD10RoundRect,0.150000X-0.650000X-0.150000X0.650000X-0.150000X0.650000X0.150000X-0.650000X0.150000X0*%
%ADD11RoundRect,0.102000X-0.400000X1.000000X-0.400000X-1.000000X0.400000X-1.000000X0.400000X1.000000X0*%
%ADD12RoundRect,0.102000X-1.000000X-0.400000X1.000000X-0.400000X1.000000X0.400000X-1.000000X0.400000X0*%
%ADD13RoundRect,0.102000X-0.600000X-0.400000X0.600000X-0.400000X0.600000X0.400000X-0.600000X0.400000X0*%
%ADD14RoundRect,0.102000X0.400000X-0.600000X0.400000X0.600000X-0.400000X0.600000X-0.400000X-0.600000X0*%
%ADD15RoundRect,0.250000X0.250000X0.475000X-0.250000X0.475000X-0.250000X-0.475000X0.250000X-0.475000X0*%
%ADD16RoundRect,0.250000X0.262500X0.450000X-0.262500X0.450000X-0.262500X-0.450000X0.262500X-0.450000X0*%
%ADD17R,0.740000X2.400000*%
%ADD18C,3.200000*%
%ADD19RoundRect,0.250000X-0.450000X0.262500X-0.450000X-0.262500X0.450000X-0.262500X0.450000X0.262500X0*%
%ADD20R,0.450000X0.600000*%
%ADD21C,0.990600*%
%ADD22C,0.787400*%
%ADD23R,2.600000X2.600000*%
%ADD24C,2.600000*%
%ADD25R,1.050000X1.500000*%
%ADD26O,1.050000X1.500000*%
%ADD27R,1.700000X1.700000*%
%ADD28O,1.700000X1.700000*%
%ADD29R,0.250000X0.550000*%
%ADD30FreePoly0,270.000000*%
%ADD31RoundRect,0.250000X0.450000X-0.262500X0.450000X0.262500X-0.450000X0.262500X-0.450000X-0.262500X0*%
%ADD32R,1.800000X1.000000*%
%ADD33RoundRect,0.150000X-0.587500X-0.150000X0.587500X-0.150000X0.587500X0.150000X-0.587500X0.150000X0*%
%ADD34RoundRect,0.150000X0.587500X0.150000X-0.587500X0.150000X-0.587500X-0.150000X0.587500X-0.150000X0*%
%ADD35RoundRect,0.250000X-0.250000X-0.475000X0.250000X-0.475000X0.250000X0.475000X-0.250000X0.475000X0*%
%ADD36RoundRect,0.091000X-0.864000X-0.364000X0.864000X-0.364000X0.864000X0.364000X-0.864000X0.364000X0*%
%ADD37C,2.000000*%
%ADD38C,1.400000*%
G04 APERTURE END LIST*
D10*
%TO.C,U4*%
X112528800Y-96596200D03*
X112528800Y-97866200D03*
X112528800Y-99136200D03*
X112528800Y-100406200D03*
X119728800Y-100406200D03*
X119728800Y-99136200D03*
X119728800Y-97866200D03*
X119728800Y-96596200D03*
%TD*%
D11*
%TO.C,U3*%
X138059700Y-89969200D03*
X136789700Y-89969200D03*
X135519700Y-89969200D03*
X134249700Y-89969200D03*
X132979700Y-89969200D03*
X131709700Y-89969200D03*
X130439700Y-89969200D03*
X129169700Y-89969200D03*
X127899700Y-89969200D03*
X126629700Y-89969200D03*
D12*
X124029700Y-92024200D03*
D13*
X126329700Y-92659200D03*
D12*
X124029700Y-93294200D03*
D13*
X126329700Y-93929200D03*
D12*
X124029700Y-94564200D03*
D13*
X126329700Y-95199200D03*
D12*
X124029700Y-95834200D03*
D13*
X126329700Y-96469200D03*
D12*
X124029700Y-97104200D03*
D13*
X126329700Y-97739200D03*
D12*
X124029700Y-98374200D03*
D13*
X126329700Y-99009200D03*
D12*
X124029700Y-99644200D03*
D13*
X126329700Y-100279200D03*
D12*
X124029700Y-100914200D03*
D11*
X126629700Y-102969200D03*
X127899700Y-102969200D03*
D14*
X128534700Y-100669200D03*
D11*
X129169700Y-102969200D03*
D14*
X129804700Y-100669200D03*
D11*
X130439700Y-102969200D03*
D14*
X131074700Y-100669200D03*
D11*
X131709700Y-102969200D03*
D14*
X132284700Y-100669200D03*
D11*
X132979700Y-102969200D03*
D14*
X133614700Y-100669200D03*
D11*
X134249700Y-102969200D03*
D14*
X134884700Y-100669200D03*
D11*
X135519700Y-102969200D03*
D14*
X136154700Y-100669200D03*
D11*
X136789700Y-102969200D03*
D14*
X137424700Y-100669200D03*
D11*
X138059700Y-102969200D03*
%TD*%
D15*
%TO.C,C2*%
X113268800Y-85856400D03*
X111368800Y-85856400D03*
%TD*%
%TO.C,C6*%
X119466400Y-93218000D03*
X117566400Y-93218000D03*
%TD*%
%TO.C,C5*%
X119466400Y-90678000D03*
X117566400Y-90678000D03*
%TD*%
D16*
%TO.C,R11*%
X128369700Y-84480400D03*
X126544700Y-84480400D03*
%TD*%
D17*
%TO.C,J3*%
X120142000Y-118827000D03*
X120142000Y-122727000D03*
X118872000Y-118827000D03*
X118872000Y-122727000D03*
X117602000Y-118827000D03*
X117602000Y-122727000D03*
X116332000Y-118827000D03*
X116332000Y-122727000D03*
X115062000Y-118827000D03*
X115062000Y-122727000D03*
%TD*%
D16*
%TO.C,R1*%
X116100350Y-65532000D03*
X114275350Y-65532000D03*
%TD*%
D18*
%TO.C,REF\u002A\u002A*%
X104000000Y-84000000D03*
%TD*%
D19*
%TO.C,R2*%
X115112800Y-104599100D03*
X115112800Y-106424100D03*
%TD*%
D20*
%TO.C,D1*%
X115011200Y-86296800D03*
X115011200Y-84196800D03*
%TD*%
D16*
%TO.C,R3*%
X128571000Y-134467600D03*
X126746000Y-134467600D03*
%TD*%
D21*
%TO.C,J4*%
X125730000Y-116840000D03*
X124714000Y-124460000D03*
X126746000Y-124460000D03*
D22*
X125095000Y-118110000D03*
X125095000Y-119380000D03*
X125095000Y-120650000D03*
X125095000Y-121920000D03*
X125095000Y-123190000D03*
X126365000Y-123190000D03*
X126365000Y-121920000D03*
X126365000Y-120650000D03*
X126365000Y-119380000D03*
X126365000Y-118110000D03*
%TD*%
D19*
%TO.C,R8*%
X126800000Y-107687500D03*
X126800000Y-109512500D03*
%TD*%
D16*
%TO.C,R4*%
X119935750Y-69086100D03*
X118110750Y-69086100D03*
%TD*%
D23*
%TO.C,J1*%
X118400000Y-76047600D03*
D24*
X123480000Y-76047600D03*
%TD*%
D19*
%TO.C,R5*%
X113131600Y-104599100D03*
X113131600Y-106424100D03*
%TD*%
D25*
%TO.C,U1*%
X114604800Y-90932000D03*
D26*
X113334800Y-90932000D03*
X112064800Y-90932000D03*
%TD*%
D27*
%TO.C,J2*%
X110337600Y-117703600D03*
D28*
X110337600Y-115163600D03*
X110337600Y-112623600D03*
X110337600Y-110083600D03*
X110337600Y-107543600D03*
X110337600Y-105003600D03*
%TD*%
D29*
%TO.C,U2*%
X121750000Y-141325000D03*
X121250000Y-141325000D03*
X120750000Y-141325000D03*
X120250000Y-141325000D03*
X120250000Y-143675000D03*
X120750000Y-143675000D03*
X121250000Y-143675000D03*
X121750000Y-143675000D03*
D30*
X121000000Y-142500000D03*
%TD*%
D31*
%TO.C,R10*%
X126771400Y-61312500D03*
X126771400Y-59487500D03*
%TD*%
D32*
%TO.C,Y1*%
X121416400Y-90678000D03*
X121416400Y-93178000D03*
%TD*%
D31*
%TO.C,R9*%
X126796800Y-36345500D03*
X126796800Y-34520500D03*
%TD*%
D18*
%TO.C,REF\u002A\u002A*%
X138000000Y-84000000D03*
%TD*%
D33*
%TO.C,Q2*%
X114250350Y-67376000D03*
X114250350Y-69276000D03*
X116125350Y-68326000D03*
%TD*%
D34*
%TO.C,Q1*%
X120011550Y-67242100D03*
X120011550Y-65342100D03*
X118136550Y-66292100D03*
%TD*%
D15*
%TO.C,C1*%
X113268800Y-83824400D03*
X111368800Y-83824400D03*
%TD*%
D35*
%TO.C,C3*%
X111368800Y-87888400D03*
X113268800Y-87888400D03*
%TD*%
D18*
%TO.C,REF\u002A\u002A*%
X104000000Y-44000000D03*
%TD*%
D36*
%TO.C,D2*%
X122807700Y-66085000D03*
X122807700Y-68535000D03*
X128607700Y-68535000D03*
X128607700Y-66085000D03*
%TD*%
D15*
%TO.C,C4*%
X121950000Y-145200000D03*
X120050000Y-145200000D03*
%TD*%
D18*
%TO.C,REF\u002A\u002A*%
X104000000Y-124000000D03*
%TD*%
%TO.C,REF\u002A\u002A*%
X138000000Y-44000000D03*
%TD*%
%TO.C,REF\u002A\u002A*%
X138000000Y-124000000D03*
%TD*%
D37*
%TO.C,SW1*%
X117750000Y-32250000D03*
X124250000Y-32250000D03*
X117750000Y-36750000D03*
X124250000Y-36750000D03*
D38*
X117750000Y-34500000D03*
X124250000Y-34500000D03*
%TD*%
D37*
%TO.C,SW3*%
X117750000Y-82250000D03*
X124250000Y-82250000D03*
X124250000Y-86750000D03*
X117750000Y-86750000D03*
D38*
X117750000Y-84500000D03*
X124250000Y-84500000D03*
%TD*%
D37*
%TO.C,SW5*%
X124250000Y-132250000D03*
X117750000Y-132250000D03*
X117750000Y-136750000D03*
X124250000Y-136750000D03*
D38*
X117750000Y-134500000D03*
X124250000Y-134500000D03*
%TD*%
D37*
%TO.C,SW4*%
X117750000Y-107250000D03*
X124250000Y-107250000D03*
X124250000Y-111750000D03*
X117750000Y-111750000D03*
D38*
X117750000Y-109500000D03*
X124250000Y-109500000D03*
%TD*%
D37*
%TO.C,SW2*%
X124250000Y-57250000D03*
X117750000Y-57250000D03*
X117750000Y-61750000D03*
X124250000Y-61750000D03*
D38*
X117750000Y-59500000D03*
X124250000Y-59500000D03*
%TD*%
M02*
